<?xml version="1.0" encoding="UTF-8" standalone="no"?>
<svg
   xmlns:dc="http://purl.org/dc/elements/1.1/"
   xmlns:cc="http://creativecommons.org/ns#"
   xmlns:rdf="http://www.w3.org/1999/02/22-rdf-syntax-ns#"
   xmlns:svg="http://www.w3.org/2000/svg"
   xmlns="http://www.w3.org/2000/svg"
   id="svg26"
   preserveAspectRatio="xMidYMid meet"
   viewBox="0 0 368.84076 42.937382"
   height="42.937382pt"
   width="368.84076pt"
   version="1.0">
  <defs
     id="defs30" />
  <metadata
     id="metadata2">
Created by potrace 1.15, written by Peter Selinger 2001-2017
<rdf:RDF>
  <cc:Work
     rdf:about="">
    <dc:format>image/svg+xml</dc:format>
    <dc:type
       rdf:resource="http://purl.org/dc/dcmitype/StillImage" />
  </cc:Work>
</rdf:RDF>
</metadata>
  <g
     style="fill:#000000;stroke:none"
     id="g24"
     transform="matrix(0.1,0,0,-0.1,-4.9650636,50.759354)">
    <path
       id="path4"
       d="m 1335,490 c -22,-24 -34,-25 -71,-5 -16,8 -43,15 -61,15 -103,0 -172,-84 -173,-208 0,-107 46,-171 137,-190 60,-13 95,-6 127,23 32,30 42,70 26,101 -18,32 -30,30 -30,-3 0,-16 -9,-43 -20,-60 -17,-28 -26,-33 -58,-33 -66,0 -104,60 -104,166 -1,97 41,164 102,164 37,0 62,-22 75,-66 l 10,-38 34,73 c 35,76 37,95 6,61 z" />
    <path
       id="path6"
       d="m 3228,479 33,-30 -17,-110 c -9,-60 -18,-108 -20,-107 -1,2 -25,63 -54,136 -58,150 -47,142 -170,119 l -65,-13 38,-14 37,-14 V 304 161 l -32,-25 -33,-26 h 70 c 86,0 110,11 65,30 l -32,13 6,76 c 4,42 10,92 14,110 l 8,35 88,-137 c 49,-76 90,-136 91,-135 2,2 11,68 20,148 24,216 21,207 64,221 l 36,13 -75,12 c -107,18 -109,17 -72,-17 z" />
    <path
       id="path8"
       d="m 1458,471 c -114,-73 -120,-263 -10,-336 69,-46 164,-43 227,7 71,55 91,188 41,273 -52,88 -168,113 -258,56 z m 139,-51 c 65,-39 89,-118 57,-185 -23,-49 -67,-75 -126,-75 -112,0 -167,140 -90,231 43,52 103,63 159,29 z" />
    <path
       id="path10"
       d="m 2240,491 c 0,-5 16,-19 36,-31 34,-22 35,-24 30,-69 -3,-25 -8,-90 -12,-144 -6,-95 -7,-99 -35,-116 -30,-18 -30,-18 -7,-25 31,-8 118,-6 141,3 17,6 16,8 -7,19 -22,10 -26,18 -26,50 v 39 l 51,7 c 106,14 159,63 159,145 0,55 -37,96 -103,116 -55,16 -227,21 -227,6 z m 206,-50 c 85,-52 53,-165 -53,-186 l -33,-7 v 106 106 h 28 c 15,0 41,-9 58,-19 z" />
    <path
       id="path12"
       d="m 2710,481 c -65,-18 -65,-18 -37,-31 15,-7 27,-16 27,-20 0,-3 -11,-42 -24,-86 -19,-64 -27,-80 -45,-82 -25,-4 -26,-10 -7,-31 11,-13 12,-23 2,-51 -10,-31 -16,-36 -51,-40 l -40,-5 30,-12 c 17,-6 54,-20 83,-32 55,-22 58,-17 19,26 -19,22 -19,24 -3,68 l 18,45 h 72 73 l 13,-39 c 12,-36 11,-42 -10,-71 l -23,-32 22,7 c 13,4 46,17 74,30 52,23 52,24 3,39 -8,3 -26,56 -45,133 -52,208 -50,203 -69,202 -9,0 -46,-9 -82,-18 z" />
    <path
       id="path14"
       d="m 3410,476 -85,-22 35,-12 c 28,-10 45,-28 88,-97 54,-85 54,-86 47,-145 -6,-52 -11,-62 -38,-79 l -32,-21 h 55 c 30,0 72,3 92,6 l 36,6 -24,22 c -16,14 -26,36 -30,68 -6,45 -4,50 59,141 45,64 76,98 97,107 17,7 29,14 28,16 -8,7 -168,30 -168,24 0,-4 9,-15 19,-24 20,-18 19,-19 -17,-92 -20,-41 -40,-70 -44,-66 -4,4 -19,38 -33,76 l -26,69 22,23 c 27,28 28,28 -81,0 z" />
    <path
       id="path16"
       d="m 80,481 c -24,-7 -23,-8 18,-26 43,-19 43,-20 38,-60 -3,-22 -8,-76 -11,-120 C 116,154 112,143 79,130 25,107 46,97 138,102 c 108,5 183,37 222,95 21,30 25,48 25,107 0,131 -61,187 -202,185 -43,-1 -89,-4 -103,-8 z m 193,-49 c 49,-44 63,-145 29,-212 -18,-37 -74,-80 -103,-80 -18,0 -19,11 -19,144 0,79 3,152 6,161 8,21 58,14 87,-13 z" />
    <path
       id="path18"
       d="m 442,482 c -23,-7 -23,-7 8,-26 l 32,-18 -7,-132 -7,-131 -36,-37 -36,-38 160,6 c 87,4 160,8 162,9 2,2 2,29 0,61 l -3,59 -23,-44 c -23,-42 -25,-43 -60,-37 -20,3 -49,6 -64,6 h -28 v 149 c 0,143 1,149 23,164 21,15 19,16 -38,15 -33,0 -70,-3 -83,-6 z" />
    <path
       id="path20"
       d="M 836,302 C 786,199 745,112 743,109 c -2,-4 3,-9 11,-12 9,-4 50,55 130,186 99,164 113,193 98,199 -50,20 -53,15 -146,-180 z" />
    <path
       id="path22"
       d="m 1785,474 c 11,-8 25,-18 31,-22 9,-5 9,-45 2,-152 -9,-137 -11,-147 -35,-173 l -27,-27 h 62 c 68,0 83,10 48,33 l -23,16 18,97 c 10,53 20,98 22,100 1,2 31,-45 66,-103 43,-71 66,-101 71,-92 4,8 17,56 30,107 12,50 26,92 30,92 4,0 16,-43 26,-95 l 18,-95 -29,-30 c -33,-34 -25,-37 55,-19 74,16 78,19 49,34 -26,14 -26,16 -32,147 l -5,133 36,32 37,33 h -80 -81 l -34,-125 c -18,-69 -37,-122 -41,-118 -3,5 -22,53 -42,108 -19,55 -38,108 -42,118 -6,14 -20,17 -79,17 -66,-1 -70,-2 -51,-16 z" />
  </g>
</svg>
